<svg id="bird" fill="#fff" enable-background="new 0 0 512 512"  viewBox="0 0 512 512"  xmlns="http://www.w3.org/2000/svg"><g><path d="m280.588 142 67.701-65.639c8.289-8.083 13.442-19.365 13.442-31.857 0-24.579-19.925-44.504-44.503-44.504-14.967 0-28.198 7.396-36.265 18.724h-.75c-8.067-11.328-21.298-18.724-36.265-18.724-24.578 0-44.503 19.925-44.503 44.503 0 12.492 5.154 23.774 13.442 31.857z"/><path d="m475.199 97.904c-12.369 0-23.304 6.112-29.971 15.475h-.619c-6.667-9.362-17.602-15.475-29.971-15.475-20.313 0-36.78 16.467-36.78 36.78 0 10.324 4.259 19.648 11.109 26.329l55.951 54.248 55.951-54.248c6.85-6.68 11.109-16.005 11.109-26.329.001-20.313-16.466-36.78-36.779-36.78z"/><path d="m82.098 326.667h88.907v30h-75.016v3.863c0 18.445 15.007 33.452 33.452 33.452h103.357v-70.532c0-18.803-15.297-34.1-34.1-34.1h-150.052v3.863c0 18.447 15.007 33.454 33.452 33.454z"/><path d="m345.591 210.498c-15.976-13.067-36.157-20.265-56.829-20.265-24.068 0-46.678 9.396-63.663 26.46-11.905 11.96-20.006 26.691-23.757 42.724 34.122 1.393 61.456 29.574 61.456 64.032v100.532h-133.357c-11.512 0-22.308-3.097-31.626-8.479-16.7 5.154-34.381 7.898-52.604 7.898-2.428 0-4.965-.059-7.756-.181l-37.435-1.625 25.971 27.008c19.064 19.827 41.467 35.419 66.583 46.344 26.014 11.317 53.699 17.054 82.285 17.054 113.871 0 206.512-92.641 206.512-206.512 0-10.867-.86-21.746-2.556-32.471h28.613v-30h-36.845c-5.689-12.523-14.232-23.717-24.992-32.519zm-33.164 72.52h-30v-30h30z"/><path d="m392.427 33.48h30v29.667h-30z"/></g></svg>