<?xml version="1.0" encoding="iso-8859-1"?>
<!-- Generator: Adobe Illustrator 19.0.0, SVG Export Plug-In . SVG Version: 6.00 Build 0)  -->
<svg fill="#fff" version="1.1" id="Capa_1" xmlns="http://www.w3.org/2000/svg" xmlns:xlink="http://www.w3.org/1999/xlink" x="0px" y="0px"
	 viewBox="0 0 512 512" style="enable-background:new 0 0 512 512;" xml:space="preserve">
<g>
	<g>
		<path d="M271.5,129.391V60H301V30h-29.5V0h-30v30H211v30h30.5v68.558L61,278.974V512h170V342c0-13.785,11.215-25,25-25
			c13.785,0,25,11.215,25,25v170h170V278.974L271.5,129.391z M166,452h-30V317h30V452z M256,261c-11.046,0-20-8.954-20-20
			s8.954-20,20-20s20,8.954,20,20S267.046,261,256,261z M376,452h-30V317h30V452z"/>
	</g>
</g>
<g>
</g>
<g>
</g>
<g>
</g>
<g>
</g>
<g>
</g>
<g>
</g>
<g>
</g>
<g>
</g>
<g>
</g>
<g>
</g>
<g>
</g>
<g>
</g>
<g>
</g>
<g>
</g>
<g>
</g>
</svg>
