<svg id="Capa_1" enable-background="new 0 0 512.004 512.004" height="512" viewBox="0 0 512.004 512.004" width="512" xmlns="http://www.w3.org/2000/svg"><g><path d="m436.689 271.06h-30c0 83.089-67.598 150.687-150.688 150.687s-150.687-67.598-150.687-150.687h-30c0 84.056 57.694 154.89 135.562 174.983v35.962h-60.25v30h210.75v-30h-60.25v-35.962c77.869-20.093 135.563-90.927 135.563-174.983z"/><path d="m225.877 271.125v30h-86.514c13.388 51.91 60.606 90.372 116.639 90.372s103.251-38.462 116.639-90.372h-86.514v-30h90.312c0-.022.001-.043.001-.065v-30.187h-90.312v-30h90.312v-30.252h-90.312v-30h90.312v-30.184c0-.022-.001-.045-.001-.067h-90.312v-30h86.513c-13.389-51.909-60.606-90.37-116.638-90.37s-103.249 38.461-116.638 90.37h86.513v30h-90.312c0 .022-.001.045-.001.067v30.184h90.313v30h-90.313v30.252h90.313v30h-90.313v30.187c0 .022.001.043.001.065z"/></g></svg>