<svg fill="#fff"  viewBox="-20 0 352 352.137"  xmlns="http://www.w3.org/2000/svg"><path d="m61.753906 352.132812c34.050782-.039062 61.648438-27.632812 61.683594-61.683593v-147.257813c23.082031-35.71875 66.914062-51.996094 107.714844-39.996094 40.796875 11.996094 68.84375 49.40625 68.914062 91.933594 0 3.316406 2.6875 6 6 6 3.316406 0 6-2.683594 6-6 0-107.59375-87.308594-195.128906-194.628906-195.128906-3.3125 0-6 2.6875-6 6v247.949219c-17.214844-23.433594-48.464844-31.65625-74.988281-19.734375-26.519531 11.925781-41.109375 40.757812-35.007813 69.1875 6.101563 28.433594 31.234375 48.742187 60.3125 48.734375zm0 0"/></svg>