<svg id="wedding" enable-background="new 0 0 512 512"  viewBox="0 0 512 512" fill="#fff" xmlns="http://www.w3.org/2000/svg"><g><path d="m435.93 249.09c5.02-6.59 3.75-16-2.84-21.02l-162.09-123.5v-41.57h41c8.28 0 15-6.72 15-15s-6.72-15-15-15h-41v-18c0-8.28-6.72-15-15-15s-15 6.72-15 15v18h-41c-8.28 0-15 6.72-15 15s6.72 15 15 15h41v41.57l-162.09 123.5c-6.59 5.02-7.86 14.43-2.84 21.02 5.006 6.567 14.359 7.844 20.93 2.91.03-.02.06-.05.09-.07l29.91-22.787v282.857h50v-104c0-43.642 35.542-79 79-79 43.468 0 79 35.368 79 79v104h50v-282.857c37.138 28.294 28.749 22.044 30 22.857 6.577 4.938 15.929 3.651 20.93-2.91zm-179.93 30.91c-25.92 0-47-21.08-47-47s21.08-47 47-47 47 21.08 47 47-21.08 47-47 47z"/><circle cx="256" cy="233" r="17"/><path d="m207 408v104h34v-150.65c-19.7 6.35-34 24.86-34 46.65z"/><path d="m271 361.35v150.65h34v-104c0-21.79-14.3-40.3-34-46.65z"/><path d="m25 497c0 8.28 6.72 15 15 15h57v-207.5l-72 54z"/><path d="m415 304.5v207.5h57c8.28 0 15-6.72 15-15v-138.5z"/></g></svg>